<svg width="33" height="33" viewBox="0 0 33 33" fill="none" xmlns="http://www.w3.org/2000/svg">
<path d="M29.645 14.7675L27.775 12.595C27.4175 12.1825 27.1287 11.4125 27.1287 10.8625V8.52499C27.1287 7.06749 25.9325 5.87124 24.475 5.87124H22.1375C21.6012 5.87124 20.8175 5.58249 20.405 5.22499L18.2325 3.35499C17.2837 2.54374 15.73 2.54374 14.7675 3.35499L12.6087 5.23874C12.1962 5.58249 11.4125 5.87124 10.8762 5.87124H8.49746C7.03996 5.87124 5.84371 7.06749 5.84371 8.52499V10.8762C5.84371 11.4125 5.55496 12.1825 5.21121 12.595L3.35496 14.7812C2.55746 15.73 2.55746 17.27 3.35496 18.2187L5.21121 20.405C5.55496 20.8175 5.84371 21.5875 5.84371 22.1237V24.475C5.84371 25.9325 7.03996 27.1287 8.49746 27.1287H10.8762C11.4125 27.1287 12.1962 27.4175 12.6087 27.775L14.7812 29.645C15.73 30.4562 17.2837 30.4562 18.2462 29.645L20.4187 27.775C20.8312 27.4175 21.6012 27.1287 22.1512 27.1287H24.4887C25.9462 27.1287 27.1425 25.9325 27.1425 24.475V22.1375C27.1425 21.6012 27.4312 20.8175 27.7887 20.405L29.6587 18.2325C30.4562 17.2837 30.4562 15.7162 29.645 14.7675ZM22.935 16.5L21.3262 21.395C21.12 22.2062 20.2537 22.8662 19.3737 22.8662H16.83C16.39 22.8662 15.7712 22.715 15.4962 22.44L13.475 20.8587C13.4337 21.7387 13.035 22.11 12.0587 22.11H11.3987C10.3812 22.11 9.96871 21.7112 9.96871 20.7487V14.1762C9.96871 13.2137 10.3812 12.815 11.3987 12.815H12.0725C13.09 12.815 13.5025 13.2137 13.5025 14.1762V14.6712L16.17 10.7112C16.445 10.285 17.1462 9.98249 17.7375 10.2162C18.3837 10.4362 18.7962 11.1512 18.6587 11.7837L18.3287 13.9287C18.3012 14.1212 18.3425 14.3 18.4662 14.4375C18.5762 14.5612 18.7412 14.6437 18.92 14.6437H21.6012C22.1237 14.6437 22.5637 14.85 22.825 15.2212C23.0587 15.5787 23.1 16.0325 22.935 16.5Z" fill="#ACACAC"/>
</svg>
