<svg width="33" height="33" viewBox="0 0 33 33" fill="none" xmlns="http://www.w3.org/2000/svg">
<path d="M25.4926 5.665L17.9301 2.8325C17.1463 2.54375 15.8676 2.54375 15.0838 2.8325L7.52135 5.665C6.06385 6.215 4.88135 7.92 4.88135 9.47375V20.6112C4.88135 21.725 5.6101 23.1962 6.50385 23.8562L14.0663 29.5075C15.4001 30.5112 17.5863 30.5112 18.9201 29.5075L26.4826 23.8562C27.3763 23.1825 28.1051 21.725 28.1051 20.6112V9.47375C28.1188 7.92 26.9363 6.215 25.4926 5.665ZM21.2851 13.365L15.3726 19.2775C15.1663 19.4837 14.9051 19.58 14.6438 19.58C14.3826 19.58 14.1213 19.4837 13.9151 19.2775L11.7151 17.05C11.3163 16.6512 11.3163 15.9912 11.7151 15.5925C12.1138 15.1937 12.7738 15.1937 13.1726 15.5925L14.6576 17.0775L19.8413 11.8937C20.2401 11.495 20.9001 11.495 21.2988 11.8937C21.6976 12.2925 21.6976 12.9662 21.2851 13.365Z" fill="#ACACAC"/>
</svg>
